<svg width="329" height="332" viewBox="0 0 329 332" fill="none" xmlns="http://www.w3.org/2000/svg">
<rect opacity="0.5" x="178.388" y="190.316" width="32.8184" height="32.4219" fill="#33ACFE"/>
<rect x="180.685" y="192.586" width="28.2238" height="27.8828" fill="#33ACFE"/>
<rect opacity="0.5" x="211.206" y="190.316" width="32.8184" height="32.4219" fill="#33ACFE"/>
<rect x="213.503" y="192.586" width="28.2238" height="27.8828" fill="#33ACFE"/>
<rect opacity="0.5" x="244.025" y="190.316" width="32.8184" height="32.4219" fill="#33ACFE"/>
<rect x="246.322" y="192.586" width="28.2238" height="27.8828" fill="#33ACFE"/>
<rect opacity="0.5" x="276.843" y="190.316" width="32.8184" height="32.4219" fill="#33ACFE"/>
<rect x="279.14" y="192.586" width="28.2238" height="27.8828" fill="#33ACFE"/>
<rect opacity="0.5" x="161.979" y="17.5078" width="32.8184" height="32.4219" fill="#7AC9FF"/>
<rect x="164.276" y="19.7773" width="28.2238" height="27.8828" fill="#7AC9FF"/>
<rect opacity="0.5" x="161.979" y="49.9297" width="32.8184" height="32.4219" fill="#7AC9FF"/>
<rect x="164.276" y="52.1992" width="28.2238" height="27.8828" fill="#7AC9FF"/>
<rect opacity="0.5" x="194.797" y="49.9297" width="32.8184" height="32.4219" fill="#7AC9FF"/>
<rect x="197.094" y="52.1992" width="28.2238" height="27.8828" fill="#7AC9FF"/>
<rect opacity="0.5" x="227.615" y="49.9297" width="32.8184" height="32.4219" fill="#7AC9FF"/>
<rect x="229.913" y="52.1992" width="28.2238" height="27.8828" fill="#7AC9FF"/>
<rect opacity="0.5" x="104.218" y="17.5078" width="32.8184" height="32.4219" fill="#EDFF7A"/>
<rect x="106.516" y="19.7773" width="28.2238" height="27.8828" fill="#EDFF7A"/>
<rect opacity="0.5" x="38.5814" y="49.9297" width="32.8184" height="32.4219" fill="#EDFF7A"/>
<rect x="40.8787" y="52.1992" width="28.2238" height="27.8828" fill="#EDFF7A"/>
<rect opacity="0.5" x="71.3998" y="49.9297" width="32.8184" height="32.4219" fill="#EDFF7A"/>
<rect x="73.6971" y="52.1992" width="28.2238" height="27.8828" fill="#EDFF7A"/>
<rect opacity="0.5" x="104.218" y="49.9297" width="32.8184" height="32.4219" fill="#EDFF7A"/>
<rect x="106.516" y="52.1992" width="28.2238" height="27.8828" fill="#EDFF7A"/>
<rect opacity="0.5" x="47.1141" y="160.164" width="32.8184" height="32.4219" fill="#BD7AFF"/>
<rect x="49.4115" y="162.434" width="28.2238" height="27.8828" fill="#BD7AFF"/>
<rect opacity="0.5" x="14.2958" y="192.586" width="32.8184" height="32.4219" fill="#BD7AFF"/>
<rect x="16.5931" y="194.855" width="28.2238" height="27.8828" fill="#BD7AFF"/>
<rect opacity="0.5" x="47.1141" y="192.586" width="32.8184" height="32.4219" fill="#BD7AFF"/>
<rect x="49.4115" y="194.855" width="28.2238" height="27.8828" fill="#BD7AFF"/>
<rect opacity="0.5" x="79.9326" y="192.586" width="32.8184" height="32.4219" fill="#BD7AFF"/>
<rect x="82.2299" y="194.855" width="28.2238" height="27.8828" fill="#BD7AFF"/>
<rect opacity="0.5" x="112.751" y="101.156" width="32.8184" height="32.4219" fill="#FFCA7A"/>
<rect x="115.048" y="103.426" width="28.2238" height="27.8828" fill="#FFCA7A"/>
<rect opacity="0.5" x="145.569" y="101.156" width="32.8184" height="32.4219" fill="#FFCA7A"/>
<rect x="147.867" y="103.426" width="28.2238" height="27.8828" fill="#FFCA7A"/>
<rect opacity="0.5" x="112.751" y="133.578" width="32.8184" height="32.4219" fill="#FFCA7A"/>
<rect x="115.048" y="135.848" width="28.2238" height="27.8828" fill="#FFCA7A"/>
<rect opacity="0.5" x="145.569" y="133.578" width="32.8184" height="32.4219" fill="#FFCA7A"/>
<rect x="147.867" y="135.848" width="28.2238" height="27.8828" fill="#FFCA7A"/>
<rect opacity="0.5" x="16.5931" y="287.258" width="32.8184" height="32.4219" fill="#81FF7A"/>
<rect x="18.8904" y="289.527" width="28.2238" height="27.8828" fill="#81FF7A"/>
<rect opacity="0.5" x="49.4115" y="254.836" width="32.8184" height="32.4219" fill="#81FF7A"/>
<rect x="51.7088" y="257.105" width="28.2238" height="27.8828" fill="#81FF7A"/>
<rect opacity="0.5" x="49.4115" y="287.258" width="32.8184" height="32.4219" fill="#81FF7A"/>
<rect x="51.7088" y="289.527" width="28.2238" height="27.8828" fill="#81FF7A"/>
<rect opacity="0.5" x="82.2299" y="254.836" width="32.8184" height="32.4219" fill="#81FF7A"/>
<rect x="84.5272" y="257.105" width="28.2238" height="27.8828" fill="#81FF7A"/>
<rect opacity="0.5" x="208.909" y="289.527" width="32.8184" height="32.4219" fill="#FF3838"/>
<rect x="211.206" y="291.797" width="28.2238" height="27.8828" fill="#FF3838"/>
<rect opacity="0.5" x="176.09" y="257.105" width="32.8184" height="32.4219" fill="#FF3838"/>
<rect x="178.388" y="259.375" width="28.2238" height="27.8828" fill="#FF3838"/>
<rect opacity="0.5" x="208.909" y="257.105" width="32.8184" height="32.4219" fill="#FF3838"/>
<rect x="211.206" y="259.375" width="28.2238" height="27.8828" fill="#FF3838"/>
<rect opacity="0.5" x="241.727" y="289.527" width="32.8184" height="32.4219" fill="#FF3838"/>
<rect x="244.025" y="291.797" width="28.2238" height="27.8828" fill="#FF3838"/>
<rect opacity="0.95" x="0.183899" width="328.184" height="332" fill="#1E2428"/>
</svg>
